<?xml version="1.0" encoding="UTF-8"?>
<svg xmlns="http://www.w3.org/2000/svg"
     xmlns:xlink="http://www.w3.org/1999/xlink"
     version="1.2"
     width="160mm" height="120mm" viewBox="0 0 160 120"
     stroke="none"
     fill="#000000"
     stroke-width="0.3"
     font-size="3.88"
>
<defs>
  <marker id="arrow" markerWidth="15" markerHeight="7" refX="5" refY="3.5" orient="auto" markerUnits="strokeWidth">
    <path d="M0,0 L15,3.5 L0,7 z" stroke="context-stroke" fill="context-stroke"/>
  </marker>
</defs>
<g fill="#000000" fill-opacity="0.000" id="img-735ae5d1-1">
  <g transform="translate(80,60)">
    <path d="M-80,-60 L80,-60 80,60 -80,60  z" class="primitive"/>
  </g>
</g>
<g stroke-width="1.34" stroke="#D3D3D3" id="img-735ae5d1-2">
</g>
<g stroke-width="1.34" stroke="#D3D3D3" id="img-735ae5d1-3">
  <g transform="translate(45.1,110)">
    <path fill="none" d="M-21.77,0 L21.77,0 " class="primitive"/>
  </g>
  <g transform="translate(13.33,61.17)">
    <path fill="none" d="M0,41.33 L0,-41.33 " class="primitive"/>
  </g>
  <g transform="translate(114.9,110)">
    <path fill="none" d="M21.77,0 L-21.77,0 " class="primitive"/>
  </g>
  <g transform="translate(146.67,61.17)">
    <path fill="none" d="M0,41.33 L0,-41.33 " class="primitive"/>
  </g>
  <g transform="translate(112.63,61.05)">
    <path fill="none" d="M-28.16,42.24 L28.16,-42.24 " class="primitive"/>
  </g>
  <g transform="translate(78.43,10)">
    <path fill="none" d="M-55.1,0 L55.1,0 " class="primitive"/>
  </g>
</g>
<g fill="#D3D3D3" id="img-735ae5d1-4">
</g>
<g fill="#D3D3D3" id="img-735ae5d1-5">
  <g transform="translate(67.91,110)">
    <path d="M-1.04,-0.86 L2.09,0 -1.04,0.86  z" class="primitive"/>
  </g>
  <g transform="translate(13.33,19.07)">
    <path d="M-1.14,0.78 L-0,-1.57 1.14,0.78  z" class="primitive"/>
  </g>
  <g transform="translate(92.09,110)">
    <path d="M1.04,0.86 L-2.09,0 1.04,-0.86  z" class="primitive"/>
  </g>
  <g transform="translate(146.67,19.07)">
    <path d="M-1.14,0.78 L0,-1.57 1.14,0.78  z" class="primitive"/>
  </g>
  <g transform="translate(141.26,18.11)">
    <path d="M-1.49,0.32 L0.93,-1.4 0.55,1.08  z" class="primitive"/>
  </g>
  <g transform="translate(134.58,10)">
    <path d="M-1.04,-0.86 L2.09,-0 -1.04,0.86  z" class="primitive"/>
  </g>
</g>
<g font-size="4" fill="#000000" id="img-735ae5d1-6">
</g>
<g stroke-width="0" stroke="#000000" stroke-opacity="0.000" fill="#40E0D0" id="img-735ae5d1-7">
  <g transform="translate(13.33,110)">
    <circle cx="0" cy="0" r="9.6" class="primitive"/>
  </g>
  <g transform="translate(146.67,110)">
    <circle cx="0" cy="0" r="9.6" class="primitive"/>
  </g>
  <g transform="translate(80,110)">
    <circle cx="0" cy="0" r="9.6" class="primitive"/>
  </g>
  <g transform="translate(13.33,10)">
    <circle cx="0" cy="0" r="9.6" class="primitive"/>
  </g>
  <g transform="translate(146.67,10)">
    <circle cx="0" cy="0" r="9.6" class="primitive"/>
  </g>
</g>
<g font-family="Helvetica" font-size="4" fill="#000000" id="img-735ae5d1-8">
  <g transform="translate(13.33,110)">
    <g class="primitive">
      <text text-anchor="middle" dy="0.35em">U1</text>
    </g>
  </g>
  <g transform="translate(146.67,110)">
    <g class="primitive">
      <text text-anchor="middle" dy="0.35em">U2</text>
    </g>
  </g>
  <g transform="translate(80,110)">
    <g class="primitive">
      <text text-anchor="middle" dy="0.35em">Z</text>
    </g>
  </g>
  <g transform="translate(13.33,10)">
    <g class="primitive">
      <text text-anchor="middle" dy="0.35em">X</text>
    </g>
  </g>
  <g transform="translate(146.67,10)">
    <g class="primitive">
      <text text-anchor="middle" dy="0.35em">Y</text>
    </g>
  </g>
</g>
<g font-family="Helvetica" font-size="4" fill="#000000" id="img-735ae5d1-9">
  <g transform="translate(80,0)">
    <g class="primitive">
      <text text-anchor="middle" dy="0.35em"></text>
    </g>
  </g>
</g>
</svg>
